<?xml version="1.0" encoding="utf-8"?>
<!-- Generator: Adobe Illustrator 17.1.0, SVG Export Plug-In . SVG Version: 6.00 Build 0)  -->
<!DOCTYPE svg PUBLIC "-//W3C//DTD SVG 1.1//EN" "http://www.w3.org/Graphics/SVG/1.1/DTD/svg11.dtd">
<svg version="1.1" id="Layer_1" xmlns="http://www.w3.org/2000/svg" xmlns:xlink="http://www.w3.org/1999/xlink" x="0px" y="0px"
	 viewBox="0 0 72 72" enable-background="new 0 0 72 72" xml:space="preserve">
<path fill="#E5E5E5" d="M36,0C16.1,0,0,16.1,0,36c0,19.9,16.1,36,36,36c19.9,0,36-16.1,36-36C72,16.1,55.9,0,36,0z M35.5,53
	c0,0-13-11.8-13-19s5.8-13,13-13c7.2,0,13,5.8,13,13S35.5,53,35.5,53z M35.5,39c-2.8,0-5-2.2-5-5c0-2.8,2.2-5,5-5c2.8,0,5,2.2,5,5
	C40.5,36.8,38.3,39,35.5,39z"/>
</svg>
