<?xml version="1.0" encoding="utf-8"?>
<!-- Generator: Adobe Illustrator 17.1.0, SVG Export Plug-In . SVG Version: 6.00 Build 0)  -->
<!DOCTYPE svg PUBLIC "-//W3C//DTD SVG 1.1//EN" "http://www.w3.org/Graphics/SVG/1.1/DTD/svg11.dtd">
<svg version="1.1" id="Layer_1" xmlns="http://www.w3.org/2000/svg" xmlns:xlink="http://www.w3.org/1999/xlink" x="0px" y="0px"
	 viewBox="0 0 23.5 23.5" enable-background="new 0 0 23.5 23.5" xml:space="preserve">
<path fill="#162028" d="M6,22.5l-6,1l1-6L2.5,16l5,5L6,22.5z M9,19.5l-4.9-4.9L14,4.5l5,5L9,19.5z M22.5,6c-0.1,0.1-0.3,0.2-0.4,0.3
	l0,0L20,8.5l-4.9-4.9l-0.7-0.7L7.3,9.9c-0.4,0.4-1,0.4-1.4,0c-0.4-0.4-0.4-1,0-1.4l7.1-7.1L14.3,0l2.1,2.1l0.7-0.7l0,0
	c0.1-0.1,0.2-0.3,0.3-0.4c1.4-1.4,3.6-1.4,4.9,0C23.8,2.4,23.8,4.6,22.5,6z"/>
</svg>
