<?xml version="1.0" encoding="utf-8"?>
<!-- Generator: Adobe Illustrator 17.1.0, SVG Export Plug-In . SVG Version: 6.00 Build 0)  -->
<!DOCTYPE svg PUBLIC "-//W3C//DTD SVG 1.1//EN" "http://www.w3.org/Graphics/SVG/1.1/DTD/svg11.dtd">
<svg version="1.1" id="Layer_1" xmlns="http://www.w3.org/2000/svg" xmlns:xlink="http://www.w3.org/1999/xlink" x="0px" y="0px"
	 viewBox="0 0 72 72" enable-background="new 0 0 72 72" xml:space="preserve">
<path fill="#E5E5E5" d="M36,0C16.1,0,0,16.1,0,36c0,19.9,16.1,36,36,36c19.9,0,36-16.1,36-36C72,16.1,55.9,0,36,0z M52,46
	c0,2.2-1.8,4-4,4H24c-2.2,0-4-1.8-4-4V30h32V46z M52,28H20v-2c0-2.2,1.8-4,4-4h2v-2c0-1.1,0.9-2,2-2c1.1,0,2,0.9,2,2v2h12v-2
	c0-1.1,0.9-2,2-2c1.1,0,2,0.9,2,2v2h2c2.2,0,4,1.8,4,4V28z"/>
</svg>
