<?xml version="1.0" encoding="utf-8"?>
<!-- Generator: Adobe Illustrator 17.1.0, SVG Export Plug-In . SVG Version: 6.00 Build 0)  -->
<!DOCTYPE svg PUBLIC "-//W3C//DTD SVG 1.1//EN" "http://www.w3.org/Graphics/SVG/1.1/DTD/svg11.dtd">
<svg version="1.1" id="Layer_1" xmlns="http://www.w3.org/2000/svg" xmlns:xlink="http://www.w3.org/1999/xlink" x="0px" y="0px"
	 viewBox="0 0 33 24" enable-background="new 0 0 33 24" xml:space="preserve">
<g>
	<g>
		<path fill="#427DAA" d="M32.9,22.5c0-0.2,0.1-0.3,0.1-0.5V6.2l-8.4,6.1L32.9,22.5z M31,0H2C0.9,0,0,0.9,0,2v1.8l16.5,12L33,3.8V2
			C33,0.9,32.1,0,31,0z M17.1,17.8c-0.2,0.1-0.4,0.2-0.6,0.2c-0.2,0-0.4-0.1-0.6-0.2L10,13.5L1.5,23.9C1.7,24,1.8,24,2,24h29
			c0.2,0,0.3,0,0.5-0.1L23,13.5L17.1,17.8z M0,6.2V22c0,0.2,0,0.3,0.1,0.5l8.3-10.2L0,6.2z"/>
	</g>
</g>
</svg>
