<?xml version="1.0" encoding="utf-8"?>
<!-- Generator: Adobe Illustrator 17.1.0, SVG Export Plug-In . SVG Version: 6.00 Build 0)  -->
<!DOCTYPE svg PUBLIC "-//W3C//DTD SVG 1.1//EN" "http://www.w3.org/Graphics/SVG/1.1/DTD/svg11.dtd">
<svg version="1.1" id="Layer_1" xmlns="http://www.w3.org/2000/svg" xmlns:xlink="http://www.w3.org/1999/xlink" x="0px" y="0px"
	 viewBox="0 0 72 72" width="72" height="72" style="enable-background:new 0 0 72 72;" xml:space="preserve">
<path style="fill:#E5E5E5;" d="M36,0C16.118,0,0,16.118,0,36s16.118,36,36,36s36-16.118,36-36S55.882,0,36,0z M47,27
	c0,0.552-0.448,1-1,1h-3c0-1.657-1.343-3-3-3v2c-1.105,0-2,0.895-2,2v14c0,1.105,0.895,2,2,2v7.04c0,2.187-1.773,3.96-3.96,3.96
	h-0.08C33.773,56,32,54.227,32,52.04V45c1.105,0,2-0.895,2-2V29c0-1.105-0.895-2-2-2v-2c-0.563-1.179-2.106-2-3.5-2
	s-2.587,0.821-3.15,2H25v-1c0-2.209,1.791-4,4-4h3.142c0.446-1.722,1.997-3,3.859-3c2.209,0,4,1.791,4,4c1.657,0,3-1.343,3-3h3
	c0.552,0,1,0.448,1,1V27z"/>
</svg>
