<?xml version="1.0" encoding="utf-8"?>
<!-- Generator: Adobe Illustrator 17.1.0, SVG Export Plug-In . SVG Version: 6.00 Build 0)  -->
<!DOCTYPE svg PUBLIC "-//W3C//DTD SVG 1.1//EN" "http://www.w3.org/Graphics/SVG/1.1/DTD/svg11.dtd">
<svg version="1.1" id="Layer_1" xmlns="http://www.w3.org/2000/svg" xmlns:xlink="http://www.w3.org/1999/xlink" x="0px" y="0px"
	 viewBox="0 0 72 72" width="72" height="72" style="enable-background:new 0 0 72 72;" xml:space="preserve">
<circle style="fill:#E5E5E5;" cx="36" cy="36" r="36"/>
<g>
	<path style="fill:#FFFFFF;" d="M54.856,38.385l-2.673-15.16c-0.461-2.617-3.3-4.065-5.689-2.902L21,31.5l2,9.5l4.157,0.311
		c-0.583,0.99-0.849,2.173-0.634,3.393c0.479,2.719,3.073,4.535,5.792,4.056l3.939-0.695c2.712-0.478,4.523-3.059,4.057-5.77
		l10.191,0.763C53.145,43.333,55.317,41.002,54.856,38.385z M38.34,42.62c0.288,1.632-0.802,3.188-2.434,3.475l-3.939,0.695
		c-1.632,0.288-3.188-0.802-3.475-2.433c-0.198-1.124,0.266-2.201,1.102-2.863l8.61,0.644C38.26,42.294,38.311,42.452,38.34,42.62z"
		/>
	<path style="fill:#FFFFFF;" d="M17.811,30.974l-0.985,0.174c-0.544,0.096-0.907,0.615-0.811,1.158l1.736,9.848
		c0.096,0.544,0.615,0.907,1.158,0.811l0.985-0.174c0.544-0.096,0.907-0.615,0.811-1.158l-1.736-9.848
		C18.874,31.241,18.355,30.878,17.811,30.974z"/>
</g>
</svg>
