<?xml version="1.0" encoding="utf-8"?>
<!-- Generator: Adobe Illustrator 18.0.0, SVG Export Plug-In . SVG Version: 6.00 Build 0)  -->
<!DOCTYPE svg PUBLIC "-//W3C//DTD SVG 1.1//EN" "http://www.w3.org/Graphics/SVG/1.1/DTD/svg11.dtd">
<svg version="1.1" id="Layer_1" xmlns="http://www.w3.org/2000/svg" xmlns:xlink="http://www.w3.org/1999/xlink" x="0px" y="0px"
	 viewBox="0 0 110 64" enable-background="new 0 0 110 64" xml:space="preserve" width="110" height="64">

<path id="header-logo" d="M45.6,9.6c-12.4,5.2-18.1,19.6-12.9,31.9s19.6,18.1,31.9,12.9s18.1-19.6,12.9-31.9
	C72.3,10.1,58,4.3,45.6,9.6z M39.4,16.9c-0.6,4.3-0.4,8.8,0.5,13.2l-6.6,2.8C33.1,27,35.3,21.2,39.4,16.9z M35.1,40.5
	c-0.7-1.6-1.2-3.3-1.4-4.9l6.9-2.9c0.5,1.6,1,3.2,1.7,4.8s1.4,3.1,2.3,4.6l-6.9,2.9C36.6,43.6,35.7,42.1,35.1,40.5z M39.3,47
	l6.6-2.8c2.5,3.7,5.6,6.9,9.1,9.5C49.1,53.7,43.4,51.3,39.3,47z M62.4,52.5c-1.1,0.4-2.2,0.7-3.4,0.9c-4.2-2.6-7.9-6-10.8-10.2
	l8.6-3.7L62.4,52.5z M55.9,37.1l-9,3.8c-0.9-1.4-1.6-3-2.3-4.5c-0.7-1.6-1.2-3.2-1.7-4.8l9-3.8L55.9,37.1z M50.9,25.4l-8.6,3.7
	c-1-5-0.9-10,0.1-14.8c0.9-0.7,1.9-1.3,3-1.8L50.9,25.4z M70.9,17l-6.6,2.8c-2.5-3.7-5.6-6.9-9.1-9.5C61.1,10.2,66.8,12.7,70.9,17z
	 M47.8,11.4c1.1-0.4,2.2-0.7,3.4-0.9c4.2,2.6,7.9,6,10.8,10.2l-8.6,3.7L47.8,11.4z M54.3,26.8l9-3.8c0.9,1.4,1.6,3,2.3,4.5
	s1.2,3.2,1.7,4.8l-9,3.8L54.3,26.8z M59.3,38.5l8.6-3.7c1,5,0.9,10-0.1,14.8c-0.9,0.7-1.9,1.3-3,1.8L59.3,38.5z M70.8,47
	c0.6-4.3,0.4-8.8-0.5-13.2l6.6-2.8C77.1,37,74.9,42.8,70.8,47z M69.7,31.3c-0.5-1.6-1-3.2-1.7-4.8c-0.7-1.6-1.4-3.1-2.3-4.6l6.9-2.9
	c1,1.3,1.9,2.8,2.5,4.4s1.2,3.3,1.4,4.9L69.7,31.3z M36.5,57.2l0.9-0.4c0.1,0.5,0.4,1,1,1.4c0.5,0.3,0.9,0.2,1,0
	c0.5-0.7-2.2-1.7-1.3-3.3c0.4-0.7,1.4-0.9,2.4-0.3c0.7,0.4,1.1,1,1.2,1.6l-0.9,0.3c-0.1-0.5-0.5-1-0.9-1.2c-0.4-0.2-0.7-0.2-0.8,0
	c-0.4,0.7,2.2,1.7,1.3,3.3c-0.5,0.8-1.4,1-2.5,0.3C37,58.5,36.6,57.9,36.5,57.2z M42.8,59.4l1-2.8l1,0.4l-1,2.7
	c-0.2,0.6,0,1.2,0.7,1.5s1.2-0.1,1.5-0.7l1-2.7l1,0.4l-1,2.8c-0.4,1.1-1.4,1.7-2.8,1.2C42.8,61.6,42.4,60.6,42.8,59.4z M53.8,63.9
	l0.3-3.5l-1.7,3.4l-0.5,0l-1.1-3.7l-0.3,3.5l-1-0.1l0.4-4.9l1.5,0.1l0.9,3.2l1.5-3l1.5,0.1L54.9,64L53.8,63.9z M62.4,63.1l-0.6-3.5
	L61,63.3l-0.4,0.1l-2-3.2l0.6,3.5l-1,0.2L57.3,59l1.4-0.3l1.7,2.8l0.6-3.2l1.4-0.3l0.9,4.8L62.4,63.1z M66.4,61.8l-1.8-4.6l1-0.4
	l1.8,4.6L66.4,61.8z M71,59.6l-2.1-3.4l-1.2,0.7l-0.5-0.8l3.4-2l0.5,0.8l-1.2,0.7l2.1,3.4L71,59.6z M37.5,11.4l-2.9-3.9l1.8-1.4
	c0.9-0.6,1.8-0.4,2.3,0.3C39.2,7,39.2,8,38.3,8.6l-1,0.8l1.1,1.4L37.5,11.4z M37.8,7c-0.2-0.3-0.7-0.3-1-0.1L36,7.6l0.8,1.1L37.7,8
	C38,7.7,38.1,7.3,37.8,7z M44.9,6.9l-0.6-0.6l-1.9,0.9l0.1,0.9l-1.1,0.5L41,3.3l1.2-0.6L46,6.4L44.9,6.9z M42,4l0.2,2.2l1.4-0.7
	L42,4z M50.3,5.4L49,3.9L48.2,4l0.4,1.7l-1,0.2l-1-4.8l2.2-0.5c1-0.2,1.8,0.3,2,1.2c0.2,0.8-0.3,1.4-0.8,1.7l1.5,1.6L50.3,5.4z
	 M49.7,2.1c-0.1-0.4-0.4-0.6-0.9-0.5l-1.1,0.2L48,3.1l1.1-0.2C49.5,2.8,49.8,2.5,49.7,2.1z M54.5,5l-0.1-4L53,1l0-0.9L56.9,0l0,0.9
	l-1.4,0l0.1,4L54.5,5z M62.2,5.9l-1.6-3.6l-0.7,3.1l-1-0.2l1.1-4.8l1,0.2l1.6,3.5l0.7-3l1,0.2l-1.1,4.8L62.2,5.9z M65.2,6.8l2.1-4.4
	l3.1,1.5L70,4.7l-2.2-1l-0.4,0.9l2.1,1l-0.4,0.8l-2.1-1l-0.5,1l2.2,1l-0.4,0.8L65.2,6.8z M72.2,11.1l0.3-2l-0.6-0.5L70.9,10L70,9.4
	l3-3.9l1.8,1.4c0.8,0.6,0.9,1.5,0.3,2.3c-0.5,0.7-1.3,0.7-1.7,0.5l-0.3,2.2L72.2,11.1z M74.4,8.5c0.2-0.3,0.1-0.7-0.2-1l-0.9-0.7
	l-0.8,1l0.9,0.7C73.7,8.8,74.1,8.8,74.4,8.5z M17.9,26.2h3.6v5.2h-3.6V26.2z M28.2,32c0-6.4,2.1-12.3,5.8-17H13.5l-13,15.9
	c-0.6,0.7-0.6,1.7,0,2.4l13,15.6h21C30.6,44.3,28.2,38.5,28.2,32z M23.8,31.4c0,1.3-1,2.4-2.4,2.4h-3.6v6.7h-2.4V23.8h5.9
	c1.3,0,2.4,1.1,2.4,2.4C23.8,26.2,23.8,31.4,23.8,31.4z M109.5,30.9L96.5,15H76c3.7,4.6,6,10.6,6,17c0,6.6-2.6,12.4-6.5,17h21
	l13-15.6C110.1,32.7,110.1,31.6,109.5,30.9z M94.4,28.5H92v-2.4h-3.6v2.1l4.8,4.8c0.8,0.8,1.1,1.5,1.1,2.5v2.5
	c0,1.3-1.1,2.4-2.4,2.4h-3.6c-1.3,0-2.4-1.1-2.4-2.4v-2.4h2.4v2.4H92v-2.8l-4.8-4.8c-0.8-0.8-1.1-1.5-1.1-2.5v-1.8
	c0-1.3,1.1-2.4,2.4-2.4H92c1.3,0,2.4,1.1,2.4,2.4L94.4,28.5L94.4,28.5z"/>
</svg>
