<?xml version="1.0" encoding="utf-8"?>
<!-- Generator: Adobe Illustrator 17.1.0, SVG Export Plug-In . SVG Version: 6.00 Build 0)  -->
<!DOCTYPE svg PUBLIC "-//W3C//DTD SVG 1.1//EN" "http://www.w3.org/Graphics/SVG/1.1/DTD/svg11.dtd">
<svg version="1.1" id="Layer_1" xmlns="http://www.w3.org/2000/svg" xmlns:xlink="http://www.w3.org/1999/xlink" x="0px" y="0px"
	 viewBox="0 0 110 64" width="110" height="64" enable-background="new 0 0 110 64" xml:space="preserve">
<g>
	<path fill="#6F919D" d="M45.6,9.552c-12.357,5.245-18.143,19.566-12.898,31.923s19.566,18.143,31.923,12.898
		S82.769,34.807,77.523,22.45C72.278,10.093,57.957,4.307,45.6,9.552z M39.395,16.903c-0.561,4.334-0.416,8.794,0.513,13.207
		l-6.557,2.783C33.105,26.967,35.315,21.173,39.395,16.903z M35.061,40.474c-0.684-1.612-1.152-3.261-1.429-4.916l6.9-2.929
		c0.453,1.617,1.009,3.223,1.682,4.809c0.673,1.586,1.441,3.103,2.289,4.552l-6.898,2.928
		C36.607,43.569,35.745,42.086,35.061,40.474z M39.328,46.971l6.56-2.785c2.528,3.734,5.632,6.937,9.137,9.544
		C49.12,53.699,43.419,51.264,39.328,46.971z M62.429,52.478c-1.114,0.398-2.242,0.691-3.374,0.9
		c-4.17-2.605-7.855-6.045-10.761-10.212l8.627-3.662L62.429,52.478z M55.92,37.144l-9.035,3.835
		c-0.861-1.441-1.638-2.954-2.312-4.543c-0.674-1.588-1.222-3.198-1.661-4.818l9.035-3.835L55.92,37.144z M50.945,25.425
		l-8.629,3.663c-0.979-4.985-0.896-10.024,0.126-14.833c0.937-0.67,1.933-1.279,2.995-1.804L50.945,25.425z M70.898,16.955
		l-6.556,2.783c-2.526-3.733-5.628-6.936-9.132-9.543C61.112,10.23,66.809,12.664,70.898,16.955z M47.797,11.448
		c1.113-0.398,2.24-0.691,3.371-0.899c4.171,2.605,7.856,6.045,10.763,10.213l-8.626,3.662L47.797,11.448z M54.306,26.782
		l9.036-3.836c0.861,1.441,1.637,2.954,2.311,4.542c0.674,1.588,1.222,3.198,1.661,4.819l-9.035,3.835L54.306,26.782z M59.28,38.502
		l8.63-3.663c0.979,4.983,0.899,10.021-0.122,14.829c-0.939,0.672-1.937,1.282-3.001,1.809L59.28,38.502z M70.827,47.027
		c0.561-4.335,0.416-8.794-0.513-13.208l6.56-2.784C77.12,36.962,74.909,42.756,70.827,47.027z M69.695,31.297
		c-0.453-1.617-1.01-3.223-1.684-4.809c-0.673-1.586-1.443-3.101-2.291-4.551l6.9-2.929c0.999,1.349,1.86,2.832,2.544,4.444
		c0.684,1.612,1.153,3.261,1.43,4.917L69.695,31.297z"/>
	<g>
		<path fill="#6F919D" d="M36.486,57.232l0.923-0.382c0.099,0.491,0.387,1.04,0.959,1.403c0.491,0.312,0.86,0.24,1.014-0.002
			c0.458-0.721-2.249-1.734-1.258-3.295c0.439-0.69,1.399-0.883,2.375-0.263c0.659,0.419,1.08,0.965,1.249,1.605l-0.91,0.347
			c-0.138-0.524-0.496-0.952-0.918-1.22c-0.374-0.237-0.688-0.21-0.845,0.039c-0.415,0.653,2.247,1.724,1.263,3.272
			c-0.482,0.758-1.392,0.983-2.505,0.276C37.03,58.503,36.629,57.872,36.486,57.232z"/>
		<path fill="#6F919D" d="M42.811,59.44l0.989-2.777l0.999,0.357l-0.979,2.749c-0.23,0.645-0.014,1.223,0.701,1.478
			c0.715,0.255,1.241-0.058,1.471-0.704l0.98-2.749l1.006,0.359l-0.989,2.777c-0.408,1.145-1.37,1.694-2.779,1.192
			C42.801,61.619,42.402,60.585,42.811,59.44z"/>
		<path fill="#6F919D" d="M53.81,63.909l0.306-3.531L52.43,63.79l-0.455-0.039L50.9,60.1l-0.305,3.531l-1.043-0.09l0.424-4.897
			l1.461,0.126l0.924,3.165l1.455-2.959l1.468,0.128L54.86,64L53.81,63.909z"/>
		<path fill="#6F919D" d="M62.387,63.073l-0.639-3.484l-0.722,3.735l-0.449,0.082l-2.002-3.234l0.639,3.484l-1.029,0.189
			l-0.887-4.832l1.442-0.265l1.728,2.805l0.619-3.236l1.449-0.266l0.887,4.831L62.387,63.073z"/>
		<path fill="#6F919D" d="M66.351,61.826l-1.819-4.564l0.972-0.387l1.819,4.564L66.351,61.826z"/>
		<path fill="#6F919D" d="M70.996,59.622l-2.051-3.423l-1.231,0.738l-0.473-0.79l3.36-2.013l0.473,0.79l-1.225,0.734l2.05,3.423
			L70.996,59.622z"/>
	</g>
	<g>
		<path fill="#6F919D" d="M37.543,11.395l-2.948-3.932l1.839-1.378c0.855-0.641,1.753-0.412,2.271,0.278
			c0.512,0.684,0.474,1.615-0.375,2.251l-1.002,0.751l1.052,1.403L37.543,11.395z M37.85,7.002c-0.248-0.33-0.651-0.341-0.982-0.093
			l-0.884,0.663l0.791,1.055l0.884-0.663C37.99,7.717,38.093,7.327,37.85,7.002z"/>
		<path fill="#6F919D" d="M44.92,6.91l-0.634-0.622L42.38,7.183l0.073,0.885l-1.074,0.504L41.006,3.32l1.187-0.557l3.8,3.643
			L44.92,6.91z M42.044,3.988l0.205,2.239l1.387-0.651L42.044,3.988z"/>
		<path fill="#6F919D" d="M50.299,5.36l-1.312-1.503l-0.75,0.161l0.369,1.707l-1.023,0.221l-1.037-4.806l2.248-0.485
			c1.002-0.216,1.763,0.306,1.955,1.199c0.182,0.843-0.259,1.421-0.751,1.655l1.483,1.595L50.299,5.36z M49.696,2.075
			c-0.085-0.396-0.448-0.574-0.852-0.487l-1.081,0.233l0.28,1.297l1.081-0.233C49.528,2.797,49.785,2.485,49.696,2.075z"/>
		<path fill="#6F919D" d="M54.482,4.957l-0.064-3.996l-1.437,0.023l-0.015-0.922L56.888,0l0.015,0.922l-1.43,0.023l0.064,3.995
			L54.482,4.957z"/>
		<path fill="#6F919D" d="M62.17,5.852l-1.59-3.64l-0.698,3.13L58.86,5.115l1.069-4.799l1.05,0.234l1.552,3.51l0.672-3.014
			l1.022,0.227l-1.07,4.799L62.17,5.852z"/>
		<path fill="#6F919D" d="M65.168,6.835l2.113-4.434l3.138,1.495l-0.396,0.831l-2.194-1.045l-0.444,0.931l2.147,1.023l-0.396,0.831
			l-2.147-1.023l-0.481,1.01l2.194,1.045L68.305,8.33L65.168,6.835z"/>
		<path fill="#6F919D" d="M72.244,11.082l0.302-1.972l-0.607-0.468l-1.066,1.383l-0.828-0.639l2.999-3.892l1.821,1.403
			c0.811,0.625,0.904,1.543,0.347,2.267c-0.526,0.683-1.252,0.719-1.749,0.494l-0.261,2.162L72.244,11.082z M74.363,8.502
			c0.247-0.321,0.149-0.713-0.178-0.965L73.31,6.862l-0.81,1.05l0.875,0.674C73.703,8.839,74.106,8.834,74.363,8.502z"/>
	</g>
	<g>
		<rect x="17.881" y="26.157" fill="#6F919D" width="3.57" height="5.236"/>
		<path fill="#6F919D" d="M28.204,31.963c0-6.397,2.054-12.34,5.796-16.963H13.5L0.452,30.932c-0.584,0.71-0.584,1.734,0,2.444
			L13.5,49h21C30.569,44.321,28.204,38.538,28.204,31.963z M23.83,31.393c0,1.309-1.047,2.379-2.38,2.379h-3.57v6.663h-2.379V23.778
			h5.949c1.309,0,2.38,1.071,2.38,2.379V31.393z"/>
	</g>
	<path fill="#6F919D" d="M109.548,30.932L96.5,15H76c3.742,4.623,6.021,10.565,6.021,16.963c0,6.575-2.591,12.358-6.521,17.037h21
		l13.048-15.625C110.132,32.666,110.132,31.641,109.548,30.932z M94.397,28.536h-2.38v-2.379h-3.57v2.142l4.807,4.784
		c0.785,0.762,1.142,1.546,1.142,2.522v2.451c0,1.309-1.071,2.38-2.38,2.38h-3.57c-1.309,0-2.379-1.071-2.379-2.38v-2.379h2.379
		v2.379h3.57v-2.76l-4.807-4.784c-0.786-0.762-1.142-1.546-1.142-2.522v-1.832c0-1.309,1.071-2.379,2.379-2.379h3.57
		c1.309,0,2.38,1.071,2.38,2.379V28.536z"/>
</g>
</svg>
