<?xml version="1.0" encoding="utf-8"?>
<!-- Generator: Adobe Illustrator 17.1.0, SVG Export Plug-In . SVG Version: 6.00 Build 0)  -->
<!DOCTYPE svg PUBLIC "-//W3C//DTD SVG 1.1//EN" "http://www.w3.org/Graphics/SVG/1.1/DTD/svg11.dtd">
<svg version="1.1" id="Layer_1" xmlns="http://www.w3.org/2000/svg" xmlns:xlink="http://www.w3.org/1999/xlink" x="0px" y="0px"
	 viewBox="0 0 72 72" width="72" height="72" enable-background="new 0 0 72 72" xml:space="preserve">
<g>
	<path fill="#7A9DA8" d="M38.2,42.1l-8.6-0.6c-0.8,0.7-1.3,1.7-1.1,2.9c0.3,1.6,1.8,2.7,3.5,2.4l3.9-0.7c1.6-0.3,2.7-1.8,2.4-3.5
		C38.3,42.5,38.3,42.3,38.2,42.1z"/>
	<path fill="#7A9DA8" d="M36,0C16.1,0,0,16.1,0,36s16.1,36,36,36s36-16.1,36-36S55.9,0,36,0z M19.9,42.8l-1,0.2
		c-0.5,0.1-1.1-0.3-1.2-0.8L16,32.3c-0.1-0.5,0.3-1.1,0.8-1.2l1-0.2c0.5-0.1,1.1,0.3,1.2,0.8l1.7,9.8C20.8,42.2,20.4,42.7,19.9,42.8
		z M50.5,43.1l-10.2-0.8c0.5,2.7-1.3,5.3-4.1,5.8l-3.9,0.7c-2.7,0.5-5.3-1.3-5.8-4.1c-0.2-1.2,0.1-2.4,0.6-3.4L23,41l-2-9.5
		l25.5-11.2c2.4-1.2,5.2,0.3,5.7,2.9l2.7,15.2C55.3,41,53.1,43.3,50.5,43.1z"/>
</g>
</svg>
