<?xml version="1.0" encoding="utf-8"?>
<!-- Generator: Adobe Illustrator 17.1.0, SVG Export Plug-In . SVG Version: 6.00 Build 0)  -->
<!DOCTYPE svg PUBLIC "-//W3C//DTD SVG 1.1//EN" "http://www.w3.org/Graphics/SVG/1.1/DTD/svg11.dtd">
<svg version="1.1" id="Layer_1" xmlns="http://www.w3.org/2000/svg" xmlns:xlink="http://www.w3.org/1999/xlink" x="0px" y="0px"
	 viewBox="0 0 72 72" width="72" height="72" enable-background="new 0 0 72 72" xml:space="preserve">
<path fill="#7A9DA8" d="M36,0C16.1,0,0,16.1,0,36s16.1,36,36,36s36-16.1,36-36S55.9,0,36,0z M47,27c0,0.6-0.4,1-1,1h-3
	c0-1.7-1.3-3-3-3v2c-1.1,0-2,0.9-2,2v14c0,1.1,0.9,2,2,2v7c0,2.2-1.8,4-4,4H36c-2.2,0-4-1.8-4-4v-7c1.1,0,2-0.9,2-2V29
	c0-1.1-0.9-2-2-2v-2c-0.6-1.2-2.1-2-3.5-2s-2.6,0.8-3.1,2H25v-1c0-2.2,1.8-4,4-4h3.1c0.4-1.7,2-3,3.9-3c2.2,0,4,1.8,4,4
	c1.7,0,3-1.3,3-3h3c0.6,0,1,0.4,1,1L47,27L47,27z"/>
</svg>
