<?xml version="1.0" encoding="utf-8"?>
<!-- Generator: Adobe Illustrator 18.0.0, SVG Export Plug-In . SVG Version: 6.00 Build 0)  -->
<!DOCTYPE svg PUBLIC "-//W3C//DTD SVG 1.1//EN" "http://www.w3.org/Graphics/SVG/1.1/DTD/svg11.dtd">
<svg version="1.1" id="Layer_1" xmlns="http://www.w3.org/2000/svg" xmlns:xlink="http://www.w3.org/1999/xlink" x="0px" y="0px"
	 viewBox="0 -0.1 109.9 64" enable-background="new 0 -0.1 109.9 64" xml:space="preserve">
<g>
	<path fill="#6F919D" d="M45.6,9.5C33.2,14.7,27.4,29,32.7,41.4c5.2,12.4,19.6,18.1,31.9,12.9s18.1-19.6,12.9-31.9
		C72.2,10,57.9,4.2,45.6,9.5z M39.4,16.8c-0.6,4.3-0.4,8.8,0.5,13.2l-6.6,2.8C33.1,26.9,35.3,21.1,39.4,16.8z M35,40.4
		c-0.7-1.6-1.2-3.3-1.4-4.9l6.9-2.9c0.5,1.6,1,3.2,1.7,4.8c0.7,1.6,1.4,3.1,2.3,4.6l-6.9,2.9C36.6,43.5,35.7,42,35,40.4z M39.3,46.9
		l6.6-2.8c2.5,3.7,5.6,6.9,9.1,9.5C49.1,53.6,43.4,51.2,39.3,46.9z M62.4,52.4c-1.1,0.4-2.2,0.7-3.4,0.9c-4.2-2.6-7.8-6-10.8-10.2
		l8.6-3.7L62.4,52.4z M55.9,37.1l-9,3.8c-0.9-1.4-1.6-3-2.3-4.5c-0.7-1.6-1.2-3.2-1.7-4.8l9-3.8L55.9,37.1z M50.9,25.3L42.3,29
		c-1-5-0.9-10,0.1-14.8c0.9-0.7,1.9-1.3,3-1.8L50.9,25.3z M70.8,16.9l-6.6,2.8c-2.5-3.7-5.6-6.9-9.1-9.5
		C61.1,10.2,66.8,12.6,70.8,16.9z M47.8,11.4c1.1-0.4,2.2-0.7,3.4-0.9c4.2,2.6,7.9,6,10.8,10.2l-8.6,3.7L47.8,11.4z M54.3,26.7
		l9-3.8c0.9,1.4,1.6,3,2.3,4.5s1.2,3.2,1.7,4.8l-9,3.8L54.3,26.7z M59.2,38.4l8.6-3.7c1,5,0.9,10-0.1,14.8c-0.9,0.7-1.9,1.3-3,1.8
		L59.2,38.4z M70.8,46.9c0.6-4.3,0.4-8.8-0.5-13.2l6.6-2.8C77.1,36.9,74.8,42.7,70.8,46.9z M69.6,31.2c-0.5-1.6-1-3.2-1.7-4.8
		c-0.7-1.6-1.4-3.1-2.3-4.6l6.9-2.9c1,1.3,1.9,2.8,2.5,4.4c0.7,1.6,1.2,3.3,1.4,4.9L69.6,31.2z"/>
	<g>
		<path fill="#6F919D" d="M36.4,57.2l0.9-0.4c0.1,0.5,0.4,1,1,1.4c0.5,0.3,0.9,0.2,1,0c0.5-0.7-2.2-1.7-1.3-3.3
			c0.4-0.7,1.4-0.9,2.4-0.3c0.7,0.4,1.1,1,1.2,1.6l-0.9,0.3c-0.1-0.5-0.5-1-0.9-1.2c-0.4-0.2-0.7-0.2-0.8,0
			c-0.4,0.7,2.2,1.7,1.3,3.3c-0.5,0.8-1.4,1-2.5,0.3C37,58.4,36.6,57.8,36.4,57.2z"/>
		<path fill="#6F919D" d="M42.8,59.4l1-2.8l1,0.4l-1,2.7c-0.2,0.6,0,1.2,0.7,1.5s1.2-0.1,1.5-0.7l1-2.7l1,0.4l-1,2.8
			c-0.4,1.1-1.4,1.7-2.8,1.2C42.8,61.5,42.4,60.5,42.8,59.4z"/>
		<path fill="#6F919D" d="M53.8,63.8l0.3-3.5l-1.7,3.4l-0.5,0L50.9,60l-0.3,3.5l-1-0.1l0.4-4.9l1.5,0.1l0.9,3.2l1.5-3l1.5,0.1
			l-0.4,4.9L53.8,63.8z"/>
		<path fill="#6F919D" d="M62.3,63l-0.6-3.5L61,63.2l-0.4,0.1l-2-3.2l0.6,3.5l-1,0.2l-0.9-4.8l1.4-0.3l1.7,2.8l0.6-3.2l1.4-0.3
			l0.9,4.8L62.3,63z"/>
		<path fill="#6F919D" d="M66.3,61.7l-1.8-4.6l1-0.4l1.8,4.6L66.3,61.7z"/>
		<path fill="#6F919D" d="M70.9,59.5l-2-3.4l-1.2,0.7l-0.5-0.8l3.4-2l0.5,0.8l-1.2,0.7l2,3.4L70.9,59.5z"/>
	</g>
	<g>
		<path fill="#6F919D" d="M37.5,11.3l-2.9-3.9L36.4,6c0.9-0.6,1.8-0.4,2.3,0.3c0.5,0.7,0.5,1.6-0.4,2.3l-1,0.8l1.1,1.4L37.5,11.3z
			 M37.8,6.9c-0.2-0.3-0.7-0.3-1-0.1l-0.9,0.7l0.8,1.1l0.9-0.7C38,7.6,38.1,7.2,37.8,6.9z"/>
		<path fill="#6F919D" d="M44.9,6.8l-0.6-0.6l-1.9,0.9L42.4,8l-1.1,0.5L41,3.2l1.2-0.6l3.8,3.6L44.9,6.8z M42,3.9l0.2,2.2l1.4-0.7
			L42,3.9z"/>
		<path fill="#6F919D" d="M50.3,5.3l-1.3-1.5l-0.7,0.2l0.4,1.7l-1,0.2l-1-4.8l2.2-0.5c1-0.2,1.8,0.3,2,1.2c0.2,0.8-0.3,1.4-0.8,1.7
			L51.4,5L50.3,5.3z M49.6,2c-0.1-0.4-0.4-0.6-0.9-0.5l-1.1,0.2L48,3l1.1-0.2C49.5,2.7,49.7,2.4,49.6,2z"/>
		<path fill="#6F919D" d="M54.4,4.9l-0.1-4l-1.4,0l0-0.9l3.9-0.1l0,0.9l-1.4,0l0.1,4L54.4,4.9z"/>
		<path fill="#6F919D" d="M62.1,5.8l-1.6-3.6l-0.7,3.1l-1-0.2l1.1-4.8l1,0.2L62.5,4l0.7-3l1,0.2L63.1,6L62.1,5.8z"/>
		<path fill="#6F919D" d="M65.1,6.8l2.1-4.4l3.1,1.5L70,4.6l-2.2-1l-0.4,0.9l2.1,1l-0.4,0.8l-2.1-1l-0.5,1l2.2,1l-0.4,0.8L65.1,6.8z
			"/>
		<path fill="#6F919D" d="M72.2,11l0.3-2l-0.6-0.5l-1.1,1.4L70,9.3l3-3.9l1.8,1.4c0.8,0.6,0.9,1.5,0.3,2.3c-0.5,0.7-1.3,0.7-1.7,0.5
			l-0.3,2.2L72.2,11z M74.3,8.4c0.2-0.3,0.1-0.7-0.2-1l-0.9-0.7l-0.8,1l0.9,0.7C73.6,8.8,74,8.8,74.3,8.4z"/>
	</g>
	<g>
		<rect x="17.9" y="26.1" fill="#6F919D" width="3.6" height="5.2"/>
		<path fill="#6F919D" d="M28.2,31.9c0-6.4,2.1-12.3,5.8-17H13.5l-13,15.9c-0.6,0.7-0.6,1.7,0,2.4l13,15.6h21
			C30.5,44.2,28.2,38.5,28.2,31.9z M23.8,31.3c0,1.3-1,2.4-2.4,2.4h-3.6v6.7h-2.4V23.7h5.9c1.3,0,2.4,1.1,2.4,2.4L23.8,31.3
			L23.8,31.3z"/>
	</g>
	<path fill="#6F919D" d="M109.5,30.9l-13-15.9H75.9c3.7,4.6,6,10.6,6,17c0,6.6-2.6,12.4-6.5,17h21l13-15.6
		C110,32.6,110,31.6,109.5,30.9z M94.3,28.5h-2.4v-2.4h-3.6v2.1l4.8,4.8c0.8,0.8,1.1,1.5,1.1,2.5V38c0,1.3-1.1,2.4-2.4,2.4h-3.6
		c-1.3,0-2.4-1.1-2.4-2.4v-2.4h2.4V38h3.6v-2.8l-4.8-4.8c-0.8-0.8-1.1-1.5-1.1-2.5v-1.8c0-1.3,1.1-2.4,2.4-2.4h3.6
		c1.3,0,2.4,1.1,2.4,2.4L94.3,28.5L94.3,28.5z"/>
</g>
</svg>
