<?xml version="1.0" encoding="utf-8"?>
<!-- Generator: Adobe Illustrator 17.1.0, SVG Export Plug-In . SVG Version: 6.00 Build 0)  -->
<!DOCTYPE svg PUBLIC "-//W3C//DTD SVG 1.1//EN" "http://www.w3.org/Graphics/SVG/1.1/DTD/svg11.dtd">
<svg version="1.1" id="Layer_1" xmlns="http://www.w3.org/2000/svg" xmlns:xlink="http://www.w3.org/1999/xlink" x="0px" y="0px"
	 viewBox="0 0 172 100" width="172px" height="100px" enable-background="new 0 0 172 100" xml:space="preserve">
<g>
	<path fill="#454C52" d="M71.3,14.7C52,22.9,43,45.3,51.2,64.6S81.7,92.9,101,84.7s28.3-30.5,20.1-49.8S90.6,6.6,71.3,14.7z
		 M61.6,26.2C60.8,33,61,39.9,62.4,46.8l-10.2,4.3C51.8,41.9,55.3,32.9,61.6,26.2z M54.9,63c-1.1-2.5-1.8-5.1-2.2-7.7l10.8-4.6
		c0.7,2.5,1.6,5,2.6,7.5c1.1,2.5,2.2,4.8,3.6,7.1l-10.8,4.6C57.3,67.8,55.9,65.5,54.9,63z M61.5,73.1l10.2-4.3
		c3.9,5.8,8.8,10.8,14.3,14.9C76.8,83.6,67.9,79.8,61.5,73.1z M97.6,81.7c-1.7,0.6-3.5,1.1-5.3,1.4c-6.5-4.1-12.3-9.4-16.8-15.9
		L89,61.5L97.6,81.7z M87.4,57.8l-14.1,6c-1.3-2.2-2.6-4.6-3.6-7.1c-1.1-2.5-1.9-5-2.6-7.5l14.1-6L87.4,57.8z M79.7,39.5l-13.5,5.7
		c-1.5-7.8-1.4-15.6,0.2-23.2c1.5-1,3-2,4.7-2.8L79.7,39.5z M110.8,26.3l-10.2,4.3c-3.9-5.8-8.8-10.8-14.3-14.9
		C95.5,15.8,104.4,19.6,110.8,26.3z M74.8,17.7c1.7-0.6,3.5-1.1,5.3-1.4c6.5,4.1,12.3,9.4,16.8,15.9L83.4,38L74.8,17.7z M84.9,41.6
		l14.1-6c1.3,2.2,2.6,4.6,3.6,7.1c1.1,2.5,1.9,5,2.6,7.5l-14.1,6L84.9,41.6z M92.7,59.9l13.5-5.7c1.5,7.8,1.4,15.6-0.2,23.1
		c-1.5,1-3,2-4.7,2.8L92.7,59.9z M110.7,73.2c0.9-6.8,0.7-13.7-0.8-20.6l10.2-4.3C120.5,57.5,117.1,66.6,110.7,73.2z M108.9,48.7
		c-0.7-2.5-1.6-5-2.6-7.5c-1.1-2.5-2.3-4.8-3.6-7.1l10.8-4.6c1.6,2.1,2.9,4.4,4,6.9c1.1,2.5,1.8,5.1,2.2,7.7L108.9,48.7z"/>
	<g>
		<path fill="#454C52" d="M57.1,89.4l1.4-0.6c0.2,0.8,0.6,1.6,1.5,2.2c0.8,0.5,1.3,0.4,1.6,0c0.7-1.1-3.5-2.7-2-5.1
			c0.7-1.1,2.2-1.4,3.7-0.4c1,0.7,1.7,1.5,2,2.5l-1.4,0.5c-0.2-0.8-0.8-1.5-1.4-1.9c-0.6-0.4-1.1-0.3-1.3,0.1c-0.6,1,3.5,2.7,2,5.1
			c-0.8,1.2-2.2,1.5-3.9,0.4C58,91.4,57.3,90.4,57.1,89.4z"/>
		<path fill="#454C52" d="M67,92.9l1.5-4.3l1.6,0.6l-1.5,4.3c-0.4,1,0,1.9,1.1,2.3s1.9-0.1,2.3-1.1l1.5-4.3l1.6,0.6l-1.5,4.3
			c-0.6,1.8-2.1,2.6-4.3,1.9C67,96.3,66.3,94.7,67,92.9z"/>
		<path fill="#454C52" d="M84.1,99.9l0.5-5.5L82,99.7l-0.7-0.1l-1.7-5.7l-0.5,5.5l-1.6-0.1l0.7-7.6l2.3,0.2l1.4,4.9l2.3-4.6l2.3,0.2
			l-0.7,7.6L84.1,99.9z"/>
		<path fill="#454C52" d="M97.5,98.6l-1-5.4l-1.1,5.8l-0.7,0.1l-3.1-5l1,5.4L91,99.8l-1.4-7.5l2.2-0.4l2.7,4.4l1-5.1l2.3-0.4
			l1.4,7.5L97.5,98.6z"/>
		<path fill="#454C52" d="M103.7,96.6l-2.8-7.1l1.5-0.6l2.8,7.1L103.7,96.6z"/>
		<path fill="#454C52" d="M111,93.2l-3.2-5.3l-1.9,1.2l-0.7-1.2l5.2-3.1l0.7,1.2l-1.9,1.1l3.2,5.3L111,93.2z"/>
	</g>
	<g>
		<path fill="#454C52" d="M58.8,17.8l-4.6-6.1L57,9.5c1.3-1,2.7-0.6,3.5,0.4c0.8,1.1,0.7,2.5-0.6,3.5l-1.6,1.2l1.6,2.2L58.8,17.8z
			 M59.2,10.9c-0.4-0.5-1-0.5-1.5-0.1l-1.4,1l1.2,1.6l1.4-1C59.5,12,59.6,11.4,59.2,10.9z"/>
		<path fill="#454C52" d="M70.3,10.8l-1-1l-3,1.4l0.1,1.4l-1.7,0.8l-0.6-8.2L66,4.3l5.9,5.7L70.3,10.8z M65.8,6.2l0.3,3.5l2.2-1
			L65.8,6.2z"/>
		<path fill="#454C52" d="M78.7,8.4l-2-2.3l-1.2,0.3L76,8.9l-1.6,0.3l-1.6-7.5L76.3,1c1.6-0.3,2.8,0.5,3.1,1.9
			c0.3,1.3-0.4,2.2-1.2,2.6L80.5,8L78.7,8.4z M77.7,3.2c-0.1-0.6-0.7-0.9-1.3-0.8l-1.7,0.4l0.4,2l1.7-0.4
			C77.5,4.4,77.9,3.9,77.7,3.2z"/>
		<path fill="#454C52" d="M85.2,7.7l-0.1-6.2l-2.2,0l0-1.4L88.9,0l0,1.4l-2.2,0l0.1,6.2L85.2,7.7z"/>
		<path fill="#454C52" d="M97.2,9.1l-2.5-5.7l-1.1,4.9L92,8l1.7-7.5l1.6,0.4l2.4,5.5l1-4.7l1.6,0.4l-1.7,7.5L97.2,9.1z"/>
		<path fill="#454C52" d="M101.9,10.7l3.3-6.9l4.9,2.3l-0.6,1.3L106,5.7l-0.7,1.5l3.4,1.6l-0.6,1.3l-3.4-1.6l-0.8,1.6l3.4,1.6
			l-0.6,1.3L101.9,10.7z"/>
		<path fill="#454C52" d="M112.9,17.3l0.5-3.1l-0.9-0.7l-1.7,2.2l-1.3-1l4.7-6.1l2.8,2.2c1.3,1,1.4,2.4,0.5,3.5
			c-0.8,1.1-2,1.1-2.7,0.8l-0.4,3.4L112.9,17.3z M116.2,13.3c0.4-0.5,0.2-1.1-0.3-1.5l-1.4-1.1l-1.3,1.6l1.4,1.1
			C115.2,13.8,115.8,13.8,116.2,13.3z"/>
	</g>
	<g>
		<rect x="28.1" y="40.3" fill="#454C52" width="5.6" height="8.2"/>
		<path fill="#454C52" d="M44.2,49.4c0-10,3.5-19.2,9.3-26.4h-6.9H21.3L0.9,47.8c-0.9,1.1-0.9,2.7,0,3.8L21.3,76H54
			C47.9,68.7,44.2,59.6,44.2,49.4z M37.3,48.5c0,2-1.6,3.7-3.7,3.7h-5.6v10.4h-3.7v-26h9.3c2,0,3.7,1.7,3.7,3.7V48.5z"/>
	</g>
	<path fill="#454C52" d="M171.1,47.8L150.7,23h-31.9c5.8,7.2,9.3,16.4,9.3,26.4c0,10.3-3.7,19.3-9.8,26.6h32.4l20.4-24.4
		C172.1,50.5,172.1,48.9,171.1,47.8z M147.5,44h-3.7v-3.7h-5.6v3.3l7.5,7.5c1.2,1.2,1.8,2.4,1.8,3.9v3.8c0,2-1.7,3.7-3.7,3.7h-5.6
		c-2,0-3.7-1.7-3.7-3.7v-3.7h3.7v3.7h5.6v-4.3l-7.5-7.5c-1.2-1.2-1.8-2.4-1.8-3.9v-2.9c0-2,1.7-3.7,3.7-3.7h5.6c2,0,3.7,1.7,3.7,3.7
		V44z"/>
</g>
</svg>
