<?xml version="1.0" encoding="utf-8"?>
<!-- Generator: Adobe Illustrator 17.1.0, SVG Export Plug-In . SVG Version: 6.00 Build 0)  -->
<!DOCTYPE svg PUBLIC "-//W3C//DTD SVG 1.1//EN" "http://www.w3.org/Graphics/SVG/1.1/DTD/svg11.dtd">
<svg version="1.1" id="Layer_1" xmlns="http://www.w3.org/2000/svg" xmlns:xlink="http://www.w3.org/1999/xlink" x="0px" y="0px"
	 viewBox="0 0 110 64" enable-background="new 0 0 110 64" xml:space="preserve">
<g>
	<g>
		<g>
			<path fill="#464C53" d="M77.5,22.3C72.3,10,58,4.2,45.6,9.4C33.2,14.7,27.5,29,32.7,41.4c5.2,12.4,19.6,18.1,31.9,12.9
				C77,49,82.8,34.7,77.5,22.3z M70.9,16.8l-6.6,2.8c-2.5-3.7-5.6-6.9-9.1-9.5C61.1,10.1,66.8,12.6,70.9,16.8z M54.3,26.7l9-3.8
				c0.9,1.4,1.6,3,2.3,4.5c0.7,1.6,1.2,3.2,1.7,4.8l-9,3.8L54.3,26.7z M55.9,37l-9,3.8c-0.9-1.4-1.6-3-2.3-4.5
				c-0.7-1.6-1.2-3.2-1.7-4.8l9-3.8L55.9,37z M51.2,10.4c4.2,2.6,7.9,6,10.8,10.2l-8.6,3.7l-5.5-13C48.9,10.9,50,10.7,51.2,10.4z
				 M42.4,14.1c0.9-0.7,1.9-1.3,3-1.8l5.5,13L42.3,29C41.3,24,41.4,19,42.4,14.1z M39.4,16.8c-0.6,4.3-0.4,8.8,0.5,13.2l-6.6,2.8
				C33.1,26.9,35.3,21.1,39.4,16.8z M37.6,44.8c-1-1.3-1.9-2.8-2.5-4.4c-0.7-1.6-1.2-3.3-1.4-4.9l6.9-2.9c0.5,1.6,1,3.2,1.7,4.8
				c0.7,1.6,1.4,3.1,2.3,4.6L37.6,44.8z M39.3,46.9l6.6-2.8c2.5,3.7,5.6,6.9,9.1,9.5C49.1,53.6,43.4,51.2,39.3,46.9z M59.1,53.3
				c-4.2-2.6-7.9-6-10.8-10.2l8.6-3.7l5.5,13C61.3,52.8,60.2,53.1,59.1,53.3z M67.8,49.6c-0.9,0.7-1.9,1.3-3,1.8l-5.5-13l8.6-3.7
				C68.9,39.7,68.8,44.8,67.8,49.6z M68,26.4c-0.7-1.6-1.4-3.1-2.3-4.6l6.9-2.9c1,1.3,1.9,2.8,2.5,4.4c0.7,1.6,1.2,3.3,1.4,4.9
				l-6.9,2.9C69.2,29.6,68.7,28,68,26.4z M70.8,46.9c0.6-4.3,0.4-8.8-0.5-13.2l6.6-2.8C77.1,36.9,74.9,42.6,70.8,46.9z M40.5,54.7
				c-1-0.6-1.9-0.4-2.4,0.3c-1,1.6,1.7,2.6,1.3,3.3c-0.2,0.2-0.5,0.3-1,0c-0.6-0.4-0.9-0.9-1-1.4l-0.9,0.4c0.1,0.6,0.5,1.3,1.3,1.8
				c1.1,0.7,2,0.5,2.5-0.3c1-1.5-1.7-2.6-1.3-3.3c0.2-0.2,0.5-0.3,0.8,0c0.4,0.3,0.8,0.7,0.9,1.2l0.9-0.3
				C41.6,55.7,41.2,55.1,40.5,54.7z M46,60.5c-0.2,0.6-0.8,1-1.5,0.7c-0.7-0.3-0.9-0.8-0.7-1.5l1-2.7l-1-0.4l-1,2.8
				c-0.4,1.1,0,2.2,1.4,2.7c1.4,0.5,2.4,0,2.8-1.2l1-2.8l-1-0.4L46,60.5z M52.4,61.9l-0.9-3.2L50,58.6l-0.4,4.9l1,0.1l0.3-3.5
				l1.1,3.7l0.5,0l1.7-3.4l-0.3,3.5l1.1,0.1l0.4-4.9L53.8,59L52.4,61.9z M61.1,58.3l-0.6,3.2l-1.7-2.8L57.3,59l0.9,4.8l1-0.2
				l-0.6-3.5l2,3.2l0.4-0.1l0.7-3.7l0.6,3.5l1-0.2l-0.9-4.8L61.1,58.3z M64.5,57.3l1.8,4.6l1-0.4l-1.8-4.6L64.5,57.3z M71.1,54.9
				l-0.5-0.8l-3.4,2l0.5,0.8l1.2-0.7l2.1,3.4l0.9-0.5l-2.1-3.4L71.1,54.9z M38.4,10.8l-1.1-1.4l1-0.8C39.2,8,39.2,7,38.7,6.4
				c-0.5-0.7-1.4-0.9-2.3-0.3l-1.8,1.4l2.9,3.9L38.4,10.8z M36,7.6l0.9-0.7c0.3-0.2,0.7-0.2,1,0.1c0.2,0.3,0.1,0.7-0.2,1l-0.9,0.7
				L36,7.6z M42.5,8.1l-0.1-0.9l1.9-0.9l0.6,0.6L46,6.4l-3.8-3.6L41,3.3l0.4,5.3L42.5,8.1z M43.6,5.6l-1.4,0.7L42,4L43.6,5.6z
				 M48.6,5.7L48.2,4L49,3.9l1.3,1.5l1.2-0.3L50,3.5c0.5-0.2,0.9-0.8,0.8-1.7c-0.2-0.9-1-1.4-2-1.2l-2.2,0.5l1,4.8L48.6,5.7z
				 M48.8,1.6c0.4-0.1,0.8,0.1,0.9,0.5c0.1,0.4-0.2,0.7-0.6,0.8L48,3.1l-0.3-1.3L48.8,1.6z M54.4,1l0.1,4l1.1,0l-0.1-4l1.4,0l0-0.9
				L53,0.1L53,1L54.4,1z M60.6,2.2l1.6,3.6l1,0.2l1.1-4.8l-1-0.2l-0.7,3L61,0.6l-1.1-0.2l-1.1,4.8l1,0.2L60.6,2.2z M68.7,7.5l-2.2-1
				l0.5-1l2.1,1l0.4-0.8l-2.1-1l0.4-0.9l2.2,1l0.4-0.8l-3.1-1.5l-2.1,4.4l3.1,1.5L68.7,7.5z M70.9,10l1.1-1.4l0.6,0.5l-0.3,2l1,0.7
				l0.3-2.2c0.5,0.2,1.2,0.2,1.7-0.5c0.6-0.7,0.5-1.6-0.3-2.3l-1.8-1.4l-3,3.9L70.9,10z M73.3,6.9l0.9,0.7c0.3,0.3,0.4,0.6,0.2,1
				c-0.3,0.3-0.7,0.3-1,0.1l-0.9-0.7L73.3,6.9z M17.9,31.3h3.6v-5.2h-3.6V31.3z M34.2,14.9H13.5l-13,15.9c-0.6,0.7-0.6,1.7,0,2.4
				l13,15.6h21c-3.9-4.7-6.3-10.5-6.3-17C28.2,25.5,30.4,19.5,34.2,14.9z M23.8,31.3c0,1.3-1,2.4-2.4,2.4h-3.6v6.7h-2.4V23.7h6
				c1.3,0,2.4,1.1,2.4,2.4V31.3z M109.6,30.8L96.5,14.9H76c3.7,4.6,6,10.6,6,17c0,6.6-2.6,12.4-6.5,17h21l13.1-15.6
				C110.1,32.6,110.1,31.5,109.6,30.8z M94.4,28.4H92v-2.4h-3.6v2.1l4.8,4.8c0.8,0.8,1.1,1.5,1.1,2.5v2.5c0,1.3-1.1,2.4-2.4,2.4
				h-3.6c-1.3,0-2.4-1.1-2.4-2.4v-2.4h2.4v2.4H92v-2.8l-4.8-4.8c-0.8-0.8-1.1-1.5-1.1-2.5v-1.8c0-1.3,1.1-2.4,2.4-2.4H92
				c1.3,0,2.4,1.1,2.4,2.4V28.4z"/>
		</g>
	</g>
</g>
</svg>
