<?xml version="1.0" encoding="utf-8"?>
<!-- Generator: Adobe Illustrator 17.1.0, SVG Export Plug-In . SVG Version: 6.00 Build 0)  -->
<!DOCTYPE svg PUBLIC "-//W3C//DTD SVG 1.1//EN" "http://www.w3.org/Graphics/SVG/1.1/DTD/svg11.dtd">
<svg version="1.1" id="Layer_1" xmlns="http://www.w3.org/2000/svg" xmlns:xlink="http://www.w3.org/1999/xlink" x="0px" y="0px"
	 viewBox="0 0 27 34" width="27" height="34" style="enable-background:new 0 0 27 34;" xml:space="preserve">
<path style="fill:#7A9DA8;" d="M13.5,0C6.044,0,0,6.044,0,13.5C0,20.956,13.5,34,13.5,34S27,20.956,27,13.5
	C27,6.044,20.956,0,13.5,0z M13.747,18.986c-1.723,0-2.998-0.658-3.684-1.499l1.037-1.331c0.644,0.672,1.667,1.065,2.577,1.065
	c1.134,0,1.765-0.49,1.765-1.191c0-0.742-0.574-1.079-1.877-1.079c-0.393,0-1.023,0.014-1.163,0.028v-1.793
	c0.168,0.014,0.812,0.014,1.163,0.014c1.036,0,1.723-0.308,1.723-0.994c0-0.743-0.757-1.107-1.737-1.107
	c-0.896,0-1.709,0.336-2.367,0.967l-0.995-1.247c0.756-0.854,1.933-1.484,3.572-1.484c2.185,0,3.53,0.98,3.53,2.535
	c0,1.177-1.009,1.947-2.045,2.129c0.952,0.098,2.185,0.84,2.185,2.241C17.43,17.852,15.987,18.986,13.747,18.986z"/>
</svg>
