<?xml version="1.0" encoding="utf-8"?>
<!-- Generator: Adobe Illustrator 17.1.0, SVG Export Plug-In . SVG Version: 6.00 Build 0)  -->
<!DOCTYPE svg PUBLIC "-//W3C//DTD SVG 1.1//EN" "http://www.w3.org/Graphics/SVG/1.1/DTD/svg11.dtd">
<svg version="1.1" id="Layer_1" xmlns="http://www.w3.org/2000/svg" xmlns:xlink="http://www.w3.org/1999/xlink" x="0px" y="0px"
	 viewBox="0 0 27 34"  width="27" height="34" style="enable-background:new 0 0 27 34;" xml:space="preserve">
<path style="fill:#7A9DA8;" d="M13.5,0C6.044,0,0,6.044,0,13.5C0,20.956,13.5,34,13.5,34S27,20.956,27,13.5
	C27,6.044,20.956,0,13.5,0z M17.29,19h-7.031v-1.555c3.824-2.83,4.944-3.796,4.944-4.945c0-0.812-0.742-1.219-1.512-1.219
	c-1.065,0-1.877,0.42-2.507,1.079l-1.135-1.316c0.911-1.051,2.297-1.527,3.6-1.527c1.989,0,3.572,1.121,3.572,2.983
	c0,1.597-1.317,2.983-3.74,4.749h3.81V19z"/>
</svg>
