<?xml version="1.0" encoding="utf-8"?>
<!-- Generator: Adobe Illustrator 17.1.0, SVG Export Plug-In . SVG Version: 6.00 Build 0)  -->
<!DOCTYPE svg PUBLIC "-//W3C//DTD SVG 1.1//EN" "http://www.w3.org/Graphics/SVG/1.1/DTD/svg11.dtd">
<svg version="1.1" id="Layer_1" xmlns="http://www.w3.org/2000/svg" xmlns:xlink="http://www.w3.org/1999/xlink" x="0px" y="0px"
	 viewBox="0 0 37 48" width="37" height="48" enable-background="new 0 0 37 48" xml:space="preserve">
<path fill="#799DA8" d="M37,18.5C37,28.7,18.5,48,18.5,48S0,28.7,0,18.5S8.3,0,18.5,0S37,8.3,37,18.5z"/>
<g>
	<path fill="#FFFFFF" d="M14.2,24v-1.8c4.4-3.2,5.6-4.3,5.6-5.6c0-0.9-0.8-1.4-1.7-1.4c-1.2,0-2.1,0.5-2.9,1.2l-1.3-1.5
		c1-1.2,2.6-1.7,4.1-1.7c2.3,0,4.1,1.3,4.1,3.4c0,1.8-1.5,3.4-4.3,5.4h4.4v2H14.2z"/>
</g>
</svg>
