<?xml version="1.0" encoding="utf-8"?>
<!-- Generated by IcoMoon.io -->
<!DOCTYPE svg PUBLIC "-//W3C//DTD SVG 1.1//EN" "http://www.w3.org/Graphics/SVG/1.1/DTD/svg11.dtd">

<svg version="1.1" xmlns="http://www.w3.org/2000/svg" xmlns:xlink="http://www.w3.org/1999/xlink" width="189" height="24" viewBox="0 0 189 24">
<defs>
<g id="icon-icon-play">
	<path class="path1" d="M3.075 1.169c-0.711-0.355-1.421-0.474-2.132 0-0.711 0.237-1.066 0.947-1.066 1.776v18.355c0 0.829 0.355 1.421 1.066 1.776s1.421 0.355 2.132 0l14.684-9.237c0.592-0.355 0.947-1.066 0.947-1.776s-0.355-1.421-0.947-1.776l-14.684-9.118z"></path>
</g>
<g id="icon-icon-pen">
	<path class="path1" d="M0 24l3-8 5 5-8 3zM9.5 19.5l-4.5-4.5 10-10 4.5 4.5-10 10zM23 6c-0.1 0.1-0.3 0.2-0.4 0.3v0l-2.1 2.1-5.7-5.7-7 7.2c-0.4 0.4-1 0.4-1.4 0-0.4-0.4-0.4-1 0-1.4l8.4-8.5 2.2 2.1c0 0 0.9-0.9 1.1-1.1 1.4-1.4 3.6-1.4 4.9 0 1.3 1.4 1.3 3.6 0 5z"></path>
</g>
<g id="icon-icon-mail">
	<path class="path1" d="M33 6l-8.475 6.525 8.475 9.975z"></path>
	<path class="path2" d="M16.5 15.825l16.5-11.85v-1.95c0-1.125-0.9-2.025-2.025-2.025h-28.95c-1.125 0-2.025 0.9-2.025 2.025v2.025l16.5 11.775z"></path>
	<path class="path3" d="M23.025 13.5l-5.925 4.275c-0.225 0.15-0.375 0.225-0.6 0.225s-0.375-0.075-0.6-0.225l-5.925-4.275-8.475 10.5h30l-8.475-10.5z"></path>
	<path class="path4" d="M0 6v16.5l8.475-9.975z"></path>
</g>
<g id="icon-icon-map-pin">
	<path class="path1" d="M12 0c-6.633 0-12 5.367-12 12s5.367 12 12 12 12-5.367 12-12-5.367-12-12-12zM11.833 17.667c0 0-4.333-3.933-4.333-6.333s1.933-4.333 4.333-4.333 4.333 1.933 4.333 4.333-4.333 6.333-4.333 6.333zM11.833 13c-0.933 0-1.667-0.733-1.667-1.667s0.733-1.667 1.667-1.667 1.667 0.733 1.667 1.667-0.733 1.667-1.667 1.667z"></path>
</g>
<g id="icon-icon-calendar">
	<path class="path1" d="M8 11.333h8v4h-8v-4z"></path>
	<path class="path2" d="M12 0c-6.633 0-12 5.367-12 12s5.367 12 12 12 12-5.367 12-12-5.367-12-12-12zM17.333 15.333c0 0.733-0.6 1.333-1.333 1.333h-8c-0.733 0-1.333-0.6-1.333-1.333v-5.333h10.667v5.333zM17.333 9.333h-10.667v-0.667c0-0.733 0.6-1.333 1.333-1.333h0.667v-0.667c0-0.367 0.3-0.667 0.667-0.667s0.667 0.3 0.667 0.667v0.667h4v-0.667c0-0.367 0.3-0.667 0.667-0.667s0.667 0.3 0.667 0.667v0.667h0.667c0.733 0 1.333 0.6 1.333 1.333v0.667z"></path>
</g>
</defs>

<g fill="#000000">
	<use xlink:href="#icon-icon-play" transform="translate(0 0)"></use>
	<use xlink:href="#icon-icon-pen" transform="translate(36 0)"></use>
	<use xlink:href="#icon-icon-mail" transform="translate(76 0)"></use>
	<use xlink:href="#icon-icon-map-pin" transform="translate(125 0)"></use>
	<use xlink:href="#icon-icon-calendar" transform="translate(165 0)"></use>
</g>

</svg>
