<?xml version="1.0" encoding="utf-8"?>
<!-- Generator: Adobe Illustrator 17.1.0, SVG Export Plug-In . SVG Version: 6.00 Build 0)  -->
<!DOCTYPE svg PUBLIC "-//W3C//DTD SVG 1.1//EN" "http://www.w3.org/Graphics/SVG/1.1/DTD/svg11.dtd">
<svg version="1.1" id="Layer_1" xmlns="http://www.w3.org/2000/svg" xmlns:xlink="http://www.w3.org/1999/xlink" x="0px" y="0px"
	 viewBox="0 0 72 72" width="72px" height="72px" enable-background="new 0 0 72 72" xml:space="preserve">
<g>
	<path fill="#E5E5E5" d="M47,29H25v13h22V29z M45,40H27v-9h18V40z"/>
	<path fill="#E5E5E5" d="M36,0C16.1,0,0,16.1,0,36c0,19.9,16.1,36,36,36s36-16.1,36-36C72,16.1,55.9,0,36,0z M55,31.5
		c-2.2,0-4,1.8-4,4c0,2.2,1.8,4,4,4V46H17v-6.5c2.2,0,4-1.8,4-4c0-2.2-1.8-4-4-4V25h38V31.5z"/>
</g>
</svg>
